<?xml version="1.0" encoding="utf-8"?>
<!-- Generator: Adobe Illustrator 15.0.1, SVG Export Plug-In . SVG Version: 6.00 Build 0)  -->
<svg version="1.2" baseProfile="tiny" id="Layer_1" xmlns="http://www.w3.org/2000/svg" xmlns:xlink="http://www.w3.org/1999/xlink"
	 x="0px" y="0px" width="800px" height="600px" viewBox="0 0 800 600" xml:space="preserve">
<g>
	<polyline fill="none" stroke="#919191" stroke-miterlimit="10" points="728.5,582.5 728.5,584.5 726.5,584.5 	"/>
	<line fill="none" stroke="#919191" stroke-miterlimit="10" stroke-dasharray="4,4" x1="722" y1="584.5" x2="12" y2="584.5"/>
	<polyline fill="none" stroke="#919191" stroke-miterlimit="10" points="10.5,584.5 8.5,584.5 8.5,582.5 	"/>
	<line fill="none" stroke="#919191" stroke-miterlimit="10" stroke-dasharray="4,4" x1="8.5" y1="579" x2="8.5" y2="13"/>
	<polyline fill="none" stroke="#919191" stroke-miterlimit="10" points="8.5,10.5 8.5,8.5 10.5,8.5 	"/>
	<line fill="none" stroke="#919191" stroke-miterlimit="10" stroke-dasharray="4,4" x1="14" y1="8.5" x2="724" y2="8.5"/>
	<polyline fill="none" stroke="#919191" stroke-miterlimit="10" points="726.5,8.5 728.5,8.5 728.5,10.5 	"/>
	<line fill="none" stroke="#919191" stroke-miterlimit="10" stroke-dasharray="4,4" x1="728.5" y1="15" x2="728.5" y2="581"/>
</g>
<rect x="79.5" y="81.5" fill="none" stroke="#919191" stroke-width="5" stroke-miterlimit="10" width="576" height="432"/>
<g>
	<polyline fill="none" stroke="#919191" stroke-miterlimit="10" points="584.5,438.5 584.5,440.5 582.5,440.5 	"/>
	<line fill="none" stroke="#919191" stroke-miterlimit="10" stroke-dasharray="4,4" x1="578" y1="440.5" x2="156" y2="440.5"/>
	<polyline fill="none" stroke="#919191" stroke-miterlimit="10" points="154.5,440.5 152.5,440.5 152.5,438.5 	"/>
	<line fill="none" stroke="#919191" stroke-miterlimit="10" stroke-dasharray="4,4" x1="152.5" y1="435" x2="152.5" y2="157"/>
	<polyline fill="none" stroke="#919191" stroke-miterlimit="10" points="152.5,154.5 152.5,152.5 154.5,152.5 	"/>
	<line fill="none" stroke="#919191" stroke-miterlimit="10" stroke-dasharray="4,4" x1="158" y1="152.5" x2="580" y2="152.5"/>
	<polyline fill="none" stroke="#919191" stroke-miterlimit="10" points="582.5,152.5 584.5,152.5 584.5,154.5 	"/>
	<line fill="none" stroke="#919191" stroke-miterlimit="10" stroke-dasharray="4,4" x1="584.5" y1="159" x2="584.5" y2="437"/>
</g>
<rect x="224.5" y="224.5" fill="none" stroke="#919191" stroke-miterlimit="10" width="288" height="144"/>
<text transform="matrix(1 0 0 1 319.3389 296)" fill="#B3B3B3" font-family="'Helvetica-Bold'" font-size="26.2976">Content</text>
<text transform="matrix(1 0 0 1 317.1367 197)" fill="#B3B3B3" font-family="'Helvetica-Bold'" font-size="26.2976">Padding</text>
<text transform="matrix(1 0 0 1 325.894 125)" fill="#B3B3B3" font-family="'Helvetica-Bold'" font-size="26.2976">Border</text>
<text transform="matrix(1 0 0 1 325.9004 53)" fill="#B3B3B3" font-family="'Helvetica-Bold'" font-size="26.2976">Margin</text>
</svg>
