<?xml version="1.0" encoding="utf-8"?>
<!-- Generator: Adobe Illustrator 15.0.0, SVG Export Plug-In . SVG Version: 6.00 Build 0)  -->
<!DOCTYPE svg PUBLIC "-//W3C//DTD SVG 1.1//EN" "http://www.w3.org/Graphics/SVG/1.1/DTD/svg11.dtd">
<svg version="1.1" xmlns="http://www.w3.org/2000/svg" xmlns:xlink="http://www.w3.org/1999/xlink" x="0px" y="0px" width="72px"
	 height="72px" viewBox="0 0 72 72" enable-background="new 0 0 72 72" xml:space="preserve">
<g id="Symbols">
	<path d="M55.064,16.489c-5.098-5.078-11.867-7.875-19.061-7.875c-0.814,0-1.621,0.047-2.422,0.117
		c-0.57,1.309-2.73,2.947-1.982,4.369c1.08,2.049,3.764-0.859,5.029-1.252c1.621-0.502,4.486-1.275,4.594,1.039
		c0.082,1.68-1.656,3.025-1.428,4.912c1.951,0.521,3.014-2.586,4.736-0.945c1.664,1.58-0.396,3.652-1.416,4.725
		c-1.656,1.746-1.541,2.664-2.307,4.699c-1.223,3.25-1.221-0.107-2.027-1.092c-0.982-1.195-3.58-1.127-4.797-0.504
		c-1.844,0.943-1.855,2.598-1.115,4.473c2.016,5.088,8.021,1.293,11.75,3.439c3.492,2.012,4.266,9.117,1.418,11.609
		c-1.01,0.883-2.941,1.883-3.754,3.344c-0.428,0.766-0.26,1.873-0.625,2.746c-0.258,0.617-2.869,6.182-3.984,3.986l-1.254-1.033
		c-2.732-2.846-0.959-8.822-4.004-12.092c-1.475-1.582-3.266-2.047-3.098-4.586c0.129-1.973,1.387-2.25,2.299-3.717
		c1.617-2.602-3.418-5.18-6.111-5.504c-1.93-0.234-2.629,1.717-3.494-0.656c-0.557-1.531-0.127-3.51-0.215-5.154
		c-0.121-2.303-1.045-5.162-3.09-6.645c-0.605,0.508-1.197,1.031-1.766,1.594c-10.586,10.547-10.586,27.709,0,38.254
		c5.098,5.078,11.867,7.873,19.062,7.873c7.193,0,13.963-2.795,19.057-7.873C65.648,44.196,65.648,27.036,55.064,16.489z"/>
</g>
<g id="Layer_2">
</g>
</svg>
